PathFileType	3	(X/Y/Z)	Static_01.trc
DataRate	CameraRate	NumFrames	NumMarkers	Units	OrigDataRate	OrigDataStartFrame	OrigNumFrames
200	200	5	32	mm	200	1	400
Frame#	Time	L_ASIS			R_ASIS			L_PSIS			R_PSIS			R_Knee_Med			R_Thigh_Upper			R_Knee_Lat			R_Thigh_Front			R_Thigh_Rear			L_Knee_Med			L_Thigh_Upper			L_Thigh_Front			L_Thigh_Rear			L_Knee_Lat			L_Ankle_Med			L_Shank_Upper			L_Shank_Front			L_Shank_Rear			L_Ankle_Lat			R_Ankle_Med			R_Shank_Upper			R_Shank_Rear			R_Shank_Front			R_Ankle_Lat			R_Heel			R_Toe_Tip			R_Toe_Med			R_Toe_Lat			L_Heel			L_Toe_Tip			L_Toe_Med			L_Toe_Lat			
		X1	Y1	Z1	X2	Y2	Z2	X3	Y3	Z3	X4	Y4	Z4	X5	Y5	Z5	X6	Y6	Z6	X7	Y7	Z7	X8	Y8	Z8	X9	Y9	Z9	X10	Y10	Z10	X11	Y11	Z11	X12	Y12	Z12	X13	Y13	Z13	X14	Y14	Z14	X15	Y15	Z15	X16	Y16	Z16	X17	Y17	Z17	X18	Y18	Z18	X19	Y19	Z19	X20	Y20	Z20	X21	Y21	Z21	X22	Y22	Z22	X23	Y23	Z23	X24	Y24	Z24	X25	Y25	Z25	X26	Y26	Z26	X27	Y27	Z27	X28	Y28	Z28	X29	Y29	Z29	X30	Y30	Z30	X31	Y31	Z31	X32	Y32	Z32
1	0	-1241.9683	1003.7745	-1913.8843	-1056.0956	1002.3095	-1711.0642	-1322.408	1046.8411	-1741.7636	-1236.2711	1052.5493	-1654.3523	-1101.8986	464.79802	-1692.9665	-1066.4187	825.41261	-1599.614	-1049.0061	502.80895	-1598.5877	-1016.1421	774.12861	-1637.7003	-1063.0476	759.66475	-1587.6715	-1275.0016	469.5457	-1788.0851	-1354.2063	859.73041	-1894.7701	-1334.0352	787.53552	-1914.3755	-1379.535	792.51253	-1852.0144	-1353.8538	489.08083	-1858.5515	-1302.5504	75.824247	-1800.0048	-1422.2715	358.72229	-1830.7112	-1394.8856	302.10645	-1850.7883	-1422.7867	289.20285	-1810.8941	-1387.4806	65.338697	-1832.2374	-1084.4593	76.8249	-1617.1173	-1077.1336	368.76917	-1526.4294	-1107.8298	308.52486	-1521.7464	-1051.0674	305.39136	-1539.6594	-1075.2106	63.93152	-1523.5921	-1145.913	22.360216	-1525.3177	-956.38264	42.34209	-1630.0291	-966.6336	17.062392	-1654.4939	-963.04208	18.646815	-1535.9756	-1393.9077	25.483258	-1760.6921	-1264.6506	38.747012	-1938.4889	-1239.1867	16.180266	-1924.25	-1360.2434	10.546185	-1942.7042
2	0.005	-1241.6609	1003.7284	-1913.826	-1055.7367	1002.3386	-1711.0422	-1322.0698	1046.8106	-1741.7424	-1235.9796	1052.6441	-1654.2757	-1101.9296	464.90685	-1692.8477	-1066.1585	825.45635	-1599.5053	-1049.1254	502.84227	-1598.3645	-1015.9407	774.10508	-1637.6016	-1062.8651	759.70307	-1587.5515	-1274.7831	469.46384	-1788.0593	-1353.8601	859.70013	-1894.6505	-1333.7168	787.50883	-1914.2799	-1379.2285	792.52076	-1851.891	-1353.6032	489.02814	-1858.5091	-1302.5001	75.806579	-1799.9823	-1422.1325	358.72328	-1830.6842	-1394.7037	302.12572	-1850.7255	-1422.6176	289.22253	-1810.85	-1387.4688	65.352911	-1832.2038	-1084.4673	76.852892	-1617.1103	-1077.2589	368.77343	-1526.253	-1107.9521	308.49836	-1521.5948	-1051.1839	305.40412	-1539.5052	-1075.2241	63.920641	-1523.5777	-1145.9197	22.3402	-1525.3168	-956.37924	42.33493	-1630.0203	-966.63476	17.063032	-1654.4887	-963.04327	18.640905	-1535.9606	-1393.8997	25.496633	-1760.6918	-1264.6346	38.737592	-1938.4889	-1239.1872	16.153317	-1924.2558	-1360.253	10.559325	-1942.6963
3	0.01	-1241.3384	1003.6816	-1913.766	-1055.3636	1002.3683	-1711.0168	-1321.7195	1046.7799	-1741.7207	-1235.6742	1052.7365	-1654.2023	-1101.9653	465.01613	-1692.72	-1065.8904	825.50155	-1599.3919	-1049.2495	502.87588	-1598.1325	-1015.7346	774.08065	-1637.4966	-1062.6781	759.74266	-1587.4257	-1274.5581	469.38027	-1788.0303	-1353.5004	859.66803	-1894.5303	-1333.3863	787.48107	-1914.1844	-1378.9049	792.52297	-1851.767	-1353.3455	488.97595	-1858.464	-1302.4473	75.78832	-1799.958	-1421.9908	358.72605	-1830.6579	-1394.5204	302.14517	-1850.6647	-1422.4426	289.24194	-1810.8064	-1387.4548	65.367298	-1832.169	-1084.4759	76.881901	-1617.1008	-1077.3899	368.77768	-1526.0705	-1108.0792	308.47234	-1521.4368	-1051.3046	305.4174	-1539.3453	-1075.2379	63.909678	-1523.5622	-1145.9265	22.319127	-1525.3161	-956.37616	42.327766	-1630.0103	-966.63668	17.063371	-1654.4827	-963.04494	18.634144	-1535.9447	-1393.8876	25.507542	-1760.6939	-1264.6185	38.727417	-1938.4892	-1239.1937	16.122221	-1924.2624	-1360.2615	10.572658	-1942.6886
4	0.015	-1241.0017	1003.6351	-1913.705	-1054.9796	1002.3982	-1710.9877	-1321.3602	1046.7494	-1741.6983	-1235.3563	1052.8238	-1654.1347	-1102.0055	465.12383	-1692.5838	-1065.6171	825.54765	-1599.2749	-1049.3772	502.90921	-1597.8933	-1015.5263	774.05545	-1637.3854	-1062.4884	759.78311	-1587.2945	-1274.3289	469.29573	-1787.998	-1353.13	859.63413	-1894.4115	-1333.0464	787.45253	-1914.0902	-1378.5663	792.51847	-1851.6441	-1353.0846	488.92555	-1858.4161	-1302.3924	75.769472	-1799.9322	-1421.8478	358.73088	-1830.6328	-1394.3385	302.16454	-1850.6076	-1422.2638	289.26113	-1810.7638	-1387.4382	65.381518	-1832.1336	-1084.4851	76.911884	-1617.0882	-1077.5254	368.78174	-1525.8834	-1108.2099	308.44747	-1521.2732	-1051.4284	305.43096	-1539.1812	-1075.2518	63.898683	-1523.5459	-1145.9332	22.297187	-1525.3157	-956.37354	42.320801	-1629.9988	-966.63948	17.063476	-1654.4754	-963.04705	18.626354	-1535.9279	-1393.8715	25.516094	-1760.6979	-1264.6023	38.716576	-1938.4896	-1239.207	16.086662	-1924.2697	-1360.2688	10.586044	-1942.6811
5	0.02	-1240.6516	1003.5898	-1913.6432	-1054.5872	1002.4278	-1710.9542	-1320.9949	1046.7201	-1741.6755	-1235.0275	1052.9041	-1654.0747	-1102.0501	465.22824	-1692.4388	-1065.3409	825.59417	-1599.155	-1049.5073	502.9419	-1597.6485	-1015.3177	774.02968	-1637.2681	-1062.2978	759.82413	-1587.1588	-1274.098	469.21089	-1787.962	-1352.7515	859.59855	-1894.2957	-1332.6994	787.42346	-1913.9985	-1378.2157	792.50728	-1851.5235	-1352.824	488.87798	-1858.3651	-1302.3359	75.750024	-1799.905	-1421.7049	358.73795	-1830.6092	-1394.1607	302.18361	-1850.5557	-1422.0831	289.28005	-1810.7227	-1387.4187	65.395409	-1832.0983	-1084.4947	76.942666	-1617.0719	-1077.6644	368.78552	-1525.6933	-1108.3432	308.4242	-1521.105	-1051.5541	305.44461	-1539.014	-1075.2657	63.887732	-1523.5287	-1145.9397	22.274588	-1525.3157	-956.37149	42.314266	-1629.9856	-966.64308	17.063503	-1654.4666	-963.04955	18.617445	-1535.9102	-1393.8513	25.522191	-1760.7038	-1264.5862	38.705265	-1938.4904	-1239.2275	16.046753	-1924.2776	-1360.2744	10.599337	-1942.6737
